<svg id="visual" viewBox="0 0 900 600" width="900" height="600" xmlns="http://www.w3.org/2000/svg" xmlns:xlink="http://www.w3.org/1999/xlink" version="1.1"><rect x="0" y="0" width="900" height="600" fill="#001220"></rect><path d="M0 301L15 307.3C30 313.7 60 326.3 90 342.5C120 358.7 150 378.3 180 385.7C210 393 240 388 270 381.3C300 374.7 330 366.3 360 354.5C390 342.7 420 327.3 450 332.7C480 338 510 364 540 370.8C570 377.7 600 365.3 630 363.3C660 361.3 690 369.7 720 360.2C750 350.7 780 323.3 810 312.8C840 302.3 870 308.7 885 311.8L900 315L900 601L885 601C870 601 840 601 810 601C780 601 750 601 720 601C690 601 660 601 630 601C600 601 570 601 540 601C510 601 480 601 450 601C420 601 390 601 360 601C330 601 300 601 270 601C240 601 210 601 180 601C150 601 120 601 90 601C60 601 30 601 15 601L0 601Z" fill="#c62368"></path><path d="M0 379L15 387.7C30 396.3 60 413.7 90 417.5C120 421.3 150 411.7 180 397.7C210 383.7 240 365.3 270 367.8C300 370.3 330 393.7 360 394C390 394.3 420 371.7 450 373.8C480 376 510 403 540 404.3C570 405.7 600 381.3 630 371.8C660 362.3 690 367.7 720 377.7C750 387.7 780 402.3 810 402.5C840 402.7 870 388.3 885 381.2L900 374L900 601L885 601C870 601 840 601 810 601C780 601 750 601 720 601C690 601 660 601 630 601C600 601 570 601 540 601C510 601 480 601 450 601C420 601 390 601 360 601C330 601 300 601 270 601C240 601 210 601 180 601C150 601 120 601 90 601C60 601 30 601 15 601L0 601Z" fill="#d53867"></path><path d="M0 433L15 441.7C30 450.3 60 467.7 90 474.7C120 481.7 150 478.3 180 471C210 463.7 240 452.3 270 445.7C300 439 330 437 360 433C390 429 420 423 450 419.7C480 416.3 510 415.7 540 423C570 430.3 600 445.7 630 452.2C660 458.7 690 456.3 720 458.5C750 460.7 780 467.3 810 471C840 474.7 870 475.3 885 475.7L900 476L900 601L885 601C870 601 840 601 810 601C780 601 750 601 720 601C690 601 660 601 630 601C600 601 570 601 540 601C510 601 480 601 450 601C420 601 390 601 360 601C330 601 300 601 270 601C240 601 210 601 180 601C150 601 120 601 90 601C60 601 30 601 15 601L0 601Z" fill="#e34c67"></path><path d="M0 481L15 477.7C30 474.3 60 467.7 90 469.8C120 472 150 483 180 486.5C210 490 240 486 270 482.3C300 478.7 330 475.3 360 478.2C390 481 420 490 450 498.5C480 507 510 515 540 513.8C570 512.7 600 502.3 630 500.2C660 498 690 504 720 505.5C750 507 780 504 810 496.7C840 489.3 870 477.7 885 471.8L900 466L900 601L885 601C870 601 840 601 810 601C780 601 750 601 720 601C690 601 660 601 630 601C600 601 570 601 540 601C510 601 480 601 450 601C420 601 390 601 360 601C330 601 300 601 270 601C240 601 210 601 180 601C150 601 120 601 90 601C60 601 30 601 15 601L0 601Z" fill="#ef5f67"></path><path d="M0 519L15 523.8C30 528.7 60 538.3 90 538.3C120 538.3 150 528.7 180 525.8C210 523 240 527 270 530C300 533 330 535 360 537.8C390 540.7 420 544.3 450 544C480 543.7 510 539.3 540 536.8C570 534.3 600 533.7 630 534.3C660 535 690 537 720 536.3C750 535.7 780 532.3 810 534C840 535.7 870 542.3 885 545.7L900 549L900 601L885 601C870 601 840 601 810 601C780 601 750 601 720 601C690 601 660 601 630 601C600 601 570 601 540 601C510 601 480 601 450 601C420 601 390 601 360 601C330 601 300 601 270 601C240 601 210 601 180 601C150 601 120 601 90 601C60 601 30 601 15 601L0 601Z" fill="#fa7268"></path></svg>