<svg id="visual" viewBox="0 0 900 600" width="900" height="600" xmlns="http://www.w3.org/2000/svg" xmlns:xlink="http://www.w3.org/1999/xlink" version="1.1"><rect x="0" y="0" width="900" height="600" fill="%23002233"></rect><path d="M0 457L21.5 456.8C43 456.7 86 456.3 128.8 451.5C171.7 446.7 214.3 437.3 257.2 446.7C300 456 343 484 385.8 488.5C428.7 493 471.3 474 514.2 472.8C557 471.7 600 488.3 642.8 485C685.7 481.7 728.3 458.3 771.2 451.7C814 445 857 455 878.5 460L900 465L900 601L878.5 601C857 601 814 601 771.2 601C728.3 601 685.7 601 642.8 601C600 601 557 601 514.2 601C471.3 601 428.7 601 385.8 601C343 601 300 601 257.2 601C214.3 601 171.7 601 128.8 601C86 601 43 601 21.5 601L0 601Z" fill="%230066FF" stroke-linecap="round" stroke-linejoin="miter"></path></svg>