<svg id="visual" viewBox="0 0 900 600" width="900" height="600" xmlns="http://www.w3.org/2000/svg" xmlns:xlink="http://www.w3.org/1999/xlink" version="1.1"><rect x="0" y="0" width="900" height="600" fill="%23002233"></rect><path d="M0 498L21.5 478.5C43 459 86 420 128.8 406C171.7 392 214.3 403 257.2 415.7C300 428.3 343 442.7 385.8 448.8C428.7 455 471.3 453 514.2 444.2C557 435.3 600 419.7 642.8 413.5C685.7 407.3 728.3 410.7 771.2 410.3C814 410 857 406 878.5 404L900 402L900 601L878.5 601C857 601 814 601 771.2 601C728.3 601 685.7 601 642.8 601C600 601 557 601 514.2 601C471.3 601 428.7 601 385.8 601C343 601 300 601 257.2 601C214.3 601 171.7 601 128.8 601C86 601 43 601 21.5 601L0 601Z" fill="%230066FF" stroke-linecap="round" stroke-linejoin="miter"></path></svg>