<svg id="visual" viewBox="0 0 900 600" width="900" height="600" xmlns="http://www.w3.org/2000/svg" xmlns:xlink="http://www.w3.org/1999/xlink" version="1.1"><rect x="0" y="0" width="900" height="600" fill="%23002233"></rect><path d="M0 426L21.5 418C43 410 86 394 128.8 392.5C171.7 391 214.3 404 257.2 413.3C300 422.7 343 428.3 385.8 433.8C428.7 439.3 471.3 444.7 514.2 443.8C557 443 600 436 642.8 443.7C685.7 451.3 728.3 473.7 771.2 472.2C814 470.7 857 445.3 878.5 432.7L900 420L900 601L878.5 601C857 601 814 601 771.2 601C728.3 601 685.7 601 642.8 601C600 601 557 601 514.2 601C471.3 601 428.7 601 385.8 601C343 601 300 601 257.2 601C214.3 601 171.7 601 128.8 601C86 601 43 601 21.5 601L0 601Z" fill="%230066FF" stroke-linecap="round" stroke-linejoin="miter"></path></svg>