<svg id="visual" viewBox="0 0 900 600" width="900" height="600" xmlns="http://www.w3.org/2000/svg" xmlns:xlink="http://www.w3.org/1999/xlink" version="1.1"><rect x="0" y="0" width="900" height="600" fill="%23002233"></rect><path d="M0 486L21.5 490.2C43 494.3 86 502.7 128.8 505.8C171.7 509 214.3 507 257.2 499.8C300 492.7 343 480.3 385.8 475C428.7 469.7 471.3 471.3 514.2 458.5C557 445.7 600 418.3 642.8 420.7C685.7 423 728.3 455 771.2 461C814 467 857 447 878.5 437L900 427L900 601L878.5 601C857 601 814 601 771.2 601C728.3 601 685.7 601 642.8 601C600 601 557 601 514.2 601C471.3 601 428.7 601 385.8 601C343 601 300 601 257.2 601C214.3 601 171.7 601 128.8 601C86 601 43 601 21.5 601L0 601Z" fill="%230066FF" stroke-linecap="round" stroke-linejoin="miter"></path></svg>