<svg id="visual" viewBox="0 0 900 600" width="900" height="600" xmlns="http://www.w3.org/2000/svg" xmlns:xlink="http://www.w3.org/1999/xlink" version="1.1"><rect x="0" y="0" width="900" height="600" fill="%23002233"></rect><path d="M0 379L21.5 381.2C43 383.3 86 387.7 128.8 400.3C171.7 413 214.3 434 257.2 437.7C300 441.3 343 427.7 385.8 415.5C428.7 403.3 471.3 392.7 514.2 391.3C557 390 600 398 642.8 398.3C685.7 398.7 728.3 391.3 771.2 408.5C814 425.7 857 467.3 878.5 488.2L900 509L900 601L878.5 601C857 601 814 601 771.2 601C728.3 601 685.7 601 642.8 601C600 601 557 601 514.2 601C471.3 601 428.7 601 385.8 601C343 601 300 601 257.2 601C214.3 601 171.7 601 128.8 601C86 601 43 601 21.5 601L0 601Z" fill="%230066FF" stroke-linecap="round" stroke-linejoin="miter"></path></svg>