<svg id="visual" viewBox="0 0 900 600" width="900" height="600" xmlns="http://www.w3.org/2000/svg" xmlns:xlink="http://www.w3.org/1999/xlink" version="1.1"><rect x="0" y="0" width="900" height="600" fill="%23002233"></rect><path d="M0 487L21.5 470.2C43 453.3 86 419.7 128.8 421.8C171.7 424 214.3 462 257.2 474.3C300 486.7 343 473.3 385.8 476.2C428.7 479 471.3 498 514.2 488.8C557 479.7 600 442.3 642.8 420.7C685.7 399 728.3 393 771.2 406.2C814 419.3 857 451.7 878.5 467.8L900 484L900 601L878.5 601C857 601 814 601 771.2 601C728.3 601 685.7 601 642.8 601C600 601 557 601 514.2 601C471.3 601 428.7 601 385.8 601C343 601 300 601 257.2 601C214.3 601 171.7 601 128.8 601C86 601 43 601 21.5 601L0 601Z" fill="%230066FF" stroke-linecap="round" stroke-linejoin="miter"></path></svg>