<svg id="visual" viewBox="0 0 900 600" width="900" height="600" xmlns="http://www.w3.org/2000/svg" xmlns:xlink="http://www.w3.org/1999/xlink" version="1.1"><rect x="0" y="0" width="900" height="600" fill="%23002233"></rect><path d="M0 477L21.5 479.2C43 481.3 86 485.7 128.8 475.8C171.7 466 214.3 442 257.2 431.5C300 421 343 424 385.8 429.5C428.7 435 471.3 443 514.2 455.8C557 468.7 600 486.3 642.8 488C685.7 489.7 728.3 475.3 771.2 475.8C814 476.3 857 491.7 878.5 499.3L900 507L900 601L878.5 601C857 601 814 601 771.2 601C728.3 601 685.7 601 642.8 601C600 601 557 601 514.2 601C471.3 601 428.7 601 385.8 601C343 601 300 601 257.2 601C214.3 601 171.7 601 128.8 601C86 601 43 601 21.5 601L0 601Z" fill="%230066FF" stroke-linecap="round" stroke-linejoin="miter"></path></svg>