<svg id="visual" viewBox="0 0 900 600" width="900" height="600" xmlns="http://www.w3.org/2000/svg" xmlns:xlink="http://www.w3.org/1999/xlink" version="1.1"><rect x="0" y="0" width="900" height="600" fill="%23002233"></rect><path d="M0 477L21.5 480.3C43 483.7 86 490.3 128.8 478C171.7 465.7 214.3 434.3 257.2 436.8C300 439.3 343 475.7 385.8 477.7C428.7 479.7 471.3 447.3 514.2 438.8C557 430.3 600 445.7 642.8 461.2C685.7 476.7 728.3 492.3 771.2 486.8C814 481.3 857 454.7 878.5 441.3L900 428L900 601L878.5 601C857 601 814 601 771.2 601C728.3 601 685.7 601 642.8 601C600 601 557 601 514.2 601C471.3 601 428.7 601 385.8 601C343 601 300 601 257.2 601C214.3 601 171.7 601 128.8 601C86 601 43 601 21.5 601L0 601Z" fill="%230066FF" stroke-linecap="round" stroke-linejoin="miter"></path></svg>